<svg width="512" height="512" xmlns="http://www.w3.org/2000/svg">

 <g>
  <title>background</title>
  <rect fill="none" id="canvas_background" height="402" width="582" y="-1" x="-1"/>
 </g>
 <g>
  <title>Layer 1</title>
  <circle id="svg_3" r="256" fill="#af6928" cy="256" cx="256"/>
  <path id="svg_4" fill="#00bf5f" d="m256,469.333862c-117.630997,0 -213.33334,-95.701874 -213.33334,-213.333344s95.702343,-213.333321 213.33334,-213.333321c117.6362,0 213.333344,95.701866 213.333344,213.333321s-95.697144,213.333344 -213.333344,213.333344z"/>
  <path id="svg_6" opacity="0.3" d="m343.124207,374.203735l0,-40.814941l11.430939,0l0,-9.795715l-0.001068,0l0,-179.593079l-38.20108,0l0,92.983459l-34.286377,-21.715729l-34.285873,21.715729l0,-92.983459l-49.032547,0l0,189.388794l134.580261,0l0,40.814941l-134.58078,0c-11.250137,0 -20.4048,-9.154663 -20.4048,-20.405334c0,-7.684814 4.319458,-14.310944 10.609589,-17.791992l0,-191.595215c-11.570663,1.952545 -20.405869,11.952011 -20.405869,24.0784l0,185.306671l0.000534,-0.002136l-0.000534,0.003204c0,16.656525 13.546143,30.202667 30.20108,30.202667l160.705597,0l0,-9.796265l-16.329071,0z"/>
  <polygon id="svg_7" points="306.5567322,219.1802673 306.5567322,144 257.5769958,144 257.5769958,219.1802673     282.0666199,203.6735992   " opacity="0.3"/>
  <path id="svg_9" fill="#FFFFFF" d="m335.124207,366.203735l0,-40.814941l11.430939,0l0,-9.795715l-0.001068,0l0,-179.593079l-38.20108,0l0,92.983459l-34.286377,-21.715729l-34.285873,21.715729l0,-92.983459l-49.032547,0l0,189.388794l134.580261,0l0,40.814941l-134.58078,0c-11.250137,0 -20.4048,-9.154663 -20.4048,-20.405334c0,-7.684814 4.319458,-14.310944 10.609589,-17.791992l0,-191.595215c-11.570663,1.952545 -20.405869,11.952011 -20.405869,24.0784l0,185.306671l0.000534,-0.002136l-0.000534,0.003204c0,16.656525 13.546143,30.202667 30.20108,30.202667l160.705597,0l0,-9.796265l-16.329071,0z"/>
  <polygon id="svg_10" points="298.5567322,211.1802673 298.5567322,136 249.5770111,136 249.5770111,211.1802673     274.0666199,195.6735992   " fill="#FFFFFF"/>
 </g>
</svg>